<svg xmlns="http://www.w3.org/2000/svg" xmlns:xlink="http://www.w3.org/1999/xlink"><symbol id="icon-close" viewBox="0 0 20 20"><g fill="none"><path d="M.293 18.291a1 1 0 101.414 1.414L10 11.413l8.292 8.292a1 1 0 101.414-1.414l-8.292-8.292 8.292-8.292A1 1 0 1018.291.293L9.999 8.585 1.707.293A1 1 0 10.293 1.707L8.585 10 .293 18.291z"/></g></symbol><symbol id="icon-discount" viewBox="0 0 36 30"><g fill="none">
<path fill-rule="evenodd" clip-rule="evenodd" d="M21.3018 0H0V30H21.3568C21.9628 30 22.5453 29.7604 22.9825 29.3313L35.2782 17.2634C36.214 16.3449 36.2438 14.8246 35.3447 13.8686L22.9939 0.736539C22.5513 0.26595 21.9403 0 21.3018 0ZM14.085 19.2C16.6779 19.2 18.7799 17.051 18.7799 14.4C18.7799 11.749 16.6779 9.6 14.085 9.6C11.492 9.6 9.38997 11.749 9.38997 14.4C9.38997 17.051 11.492 19.2 14.085 19.2Z" fill="#FF7647"/>
</g></symbol></svg>